<svg width="32" height="32" viewBox="0 0 32 32" fill="none" xmlns="http://www.w3.org/2000/svg">
<path d="M16 32C24.8366 32 32 24.8366 32 16C32 7.16344 24.8366 0 16 0C7.16344 0 0 7.16344 0 16C0 24.8366 7.16344 32 16 32Z" fill="#2AA281"/>
<path d="M5.51355 9.78044V22.2068L11.5734 15.9685L5.51355 9.78044Z" fill="white"/>
<path d="M5.51355 9.78044V22.2068L11.5734 15.9685L5.51355 9.78044Z" stroke="#5F98D1"/>
<path d="M26.4863 22.2068L20.4565 15.9936L26.4863 9.78044V22.2068Z" fill="white"/>
<path d="M26.4863 22.2068L20.4565 15.9936L26.4863 9.78044V22.2068Z" stroke="#5F98D1"/>
<path d="M5.97229 9.21684H25.9882L18.1217 17.408C17.5618 17.9909 16.7885 18.3204 15.9803 18.3204C15.1721 18.3204 14.3988 17.9909 13.8389 17.408L5.97229 9.21684Z" fill="white"/>
<path d="M5.97229 9.21684H25.9882L18.1217 17.408C17.5618 17.9909 16.7885 18.3204 15.9803 18.3204C15.1721 18.3204 14.3988 17.9909 13.8389 17.408L5.97229 9.21684Z" stroke="#5F98D1"/>
<path d="M18.5755 17.8439C17.9005 18.5467 16.9547 18.9498 15.9803 18.9498C15.006 18.9498 14.06 18.5468 13.3852 17.844L12.0509 16.4546L5.97229 22.7838H25.9882L19.9097 16.4546L18.5755 17.8439Z" fill="white"/>
<path d="M18.5755 17.8439C17.9005 18.5467 16.9547 18.9498 15.9803 18.9498C15.006 18.9498 14.06 18.5468 13.3852 17.844L12.0509 16.4546L5.97229 22.7838H25.9882L19.9097 16.4546L18.5755 17.8439Z" stroke="#5F98D1"/>
</svg>
