<svg height="62" viewBox="0 0 80 62" width="80" xmlns="http://www.w3.org/2000/svg" xmlns:xlink="http://www.w3.org/1999/xlink"><filter id="a"><feColorMatrix in="SourceGraphic" type="matrix" values="0 0 0 0 0.941176 0 0 0 0 0.972549 0 0 0 0 1.000000 0 0 0 0.320000 0"/></filter><g fill="none" fill-rule="evenodd" filter="url(#a)" transform="translate(-200 -128)"><g fill="#000" fill-rule="nonzero" transform="translate(200 128)"><path d="m74.4689683 61.3333333h-68.93793659c-3.05028008 0-5.53103171-2.8482628-5.53103171-6.3501193v-48.63401913c0-1.50409727.46419246-2.96197152 1.30688031-4.10368026 1.04978911-1.42551813 2.58965833-2.24551461 4.2241514-2.24551461h68.93793659c3.0502801 0 5.5310317 2.84918733 5.5310317 6.34919487v48.63494363c0 3.500932-2.4816443 6.3491948-5.5310317 6.3491948zm-68.93793659-57.6826387c-.71860563 0-1.1988663.50752883-1.42203575.80890296-.37760271.51122667-.58381129 1.18146055-.58381129 1.88867284v48.6349436c0 1.463421.91856547 2.6985003 2.00584704 2.6985003h68.93793659c1.0872816 0 2.005847-1.2360037 2.005847-2.6985003v-48.63401913c0-1.46249655-.9185654-2.69850027-2.005847-2.69850027z"/><path d="m39.4739518 40-39.4739518-35.56830389 2.38822447-2.78214586 37.06648963 33.39701025 36.8017421-33.71322717 2.4102105 2.76244095z"/><path d="m12.2571998 21.967137 3.5774638.0294745.3321461 40.4772486-3.5774637-.0294745z" transform="matrix(.78689055 .61709258 -.61709258 .78689055 29.082669 .227464)"/><path d="m43.9875662 40.2663037 40.4781582.3321537.0294745 3.5774637-40.4781582-.3321536z" transform="matrix(.61709258 .78689055 -.78689055 .61709258 57.821896 -34.384161)"/></g></g></svg>
